<svg xmlns="http://www.w3.org/2000/svg" viewBox="0 0 64 64" role="img" aria-labelledby="title desc">
  <title id="title">世界杯装杯指南</title>
  <desc id="desc">A retro newspaper-style 2026 football guide mark with a stylized trophy over the number 26.</desc>
  <defs>
    <pattern id="paper-grain" width="8" height="8" patternUnits="userSpaceOnUse">
      <path d="M0 1.5h8M0 5.5h8" stroke="#241A14" stroke-width=".35" opacity=".06"/>
      <circle cx="1.4" cy="3.2" r=".45" fill="#241A14" opacity=".08"/>
      <circle cx="5.8" cy="6.8" r=".38" fill="#241A14" opacity=".07"/>
      <circle cx="6.4" cy="2.1" r=".25" fill="#D36E52" opacity=".08"/>
    </pattern>
  </defs>
  <rect x="4" y="4" width="56" height="56" rx="10" fill="#F5F1E8"/>
  <rect x="4" y="4" width="56" height="56" rx="10" fill="url(#paper-grain)"/>
  <path d="M10 33h44" stroke="#241A14" stroke-width="1.25" stroke-dasharray="1 4" stroke-linecap="round" opacity=".32"/>

  <path
    d="M19 15h19l7 35H26L19 15Z"
    fill="#2E83A7"
  />

  <text
    x="8"
    y="46"
    fill="#D36E52"
    stroke="#241A14"
    stroke-linejoin="round"
    stroke-width="1.4"
    font-family="Arial Black, Impact, system-ui, sans-serif"
    font-size="34"
    font-weight="900"
  >2</text>
  <text
    x="33"
    y="46"
    fill="#9CB48A"
    stroke="#241A14"
    stroke-linejoin="round"
    stroke-width="1.4"
    font-family="Arial Black, Impact, system-ui, sans-serif"
    font-size="34"
    font-weight="900"
  >6</text>

  <path
    d="M25.7 20.6h-5.4c.3 5.4 2.8 9 6.6 10.1l1-3.5c-2-.7-3.3-2.3-3.8-4.1h2.2l-.6-2.5Z"
    fill="#9CB48A"
    stroke="#241A14"
    stroke-linejoin="round"
    stroke-width="2.2"
  />
  <path
    d="M38.3 20.6h5.4c-.3 5.4-2.8 9-6.6 10.1l-1-3.5c2-.7 3.3-2.3 3.8-4.1h-2.2l.6-2.5Z"
    fill="#D36E52"
    stroke="#241A14"
    stroke-linejoin="round"
    stroke-width="2.2"
  />
  <path
    d="M25 15h14l-1.2 12.4C37.2 33 34.8 36 32 36s-5.2-3-5.8-8.6L25 15Z"
    fill="#E4A853"
    stroke="#241A14"
    stroke-linejoin="round"
    stroke-width="2.4"
  />
  <path d="M32 36v6M25.5 42h13" stroke="#241A14" stroke-linecap="round" stroke-width="2.6"/>
  <path d="M28.2 18.2h7.6M29 21.5h6" stroke="#F5F1E8" stroke-linecap="round" stroke-width="1.8" opacity=".78"/>

  <rect x="4" y="4" width="56" height="56" rx="10" fill="none" stroke="#241A14" stroke-width="1.4"/>
</svg>
